<?xml version="1.0" encoding="UTF-8" standalone="no"?>
<!DOCTYPE svg PUBLIC "-//W3C//DTD SVG 1.1//EN"
 "http://www.w3.org/Graphics/SVG/1.1/DTD/svg11.dtd">
<!-- Generated by graphviz version 13.1.0 (20250701.0955)
 -->
<!-- Title: G Pages: 1 -->
<svg width="845pt" height="553pt"
 viewBox="0.00 0.00 845.00 553.00" xmlns="http://www.w3.org/2000/svg" xmlns:xlink="http://www.w3.org/1999/xlink">
<g id="graph0" class="graph" transform="scale(1 1) rotate(0) translate(4 548.75)">
<title>G</title><style>.edge>path:hover{stroke-width:8}</style>
<polygon fill="white" stroke="none" points="-4,4 -4,-548.75 841.25,-548.75 841.25,4 -4,4"/>
<!-- app -->
<g id="node1" class="node">
<title>app</title><style>.edge>path:hover{stroke-width:8}</style>
<polygon fill="blue" stroke="black" points="837.25,-144 783.25,-144 783.25,-108 837.25,-108 837.25,-144"/>
<text xml:space="preserve" text-anchor="middle" x="810.25" y="-122.5" font-family="Helvetica,sans-Serif" font-size="10.00" fill="white">app</text>
</g>
<!-- app_api -->
<g id="node2" class="node">
<title>app_api</title><style>.edge>path:hover{stroke-width:8}</style>
<ellipse fill="#c24747" stroke="black" cx="701.38" cy="-218" rx="28.56" ry="18"/>
<text xml:space="preserve" text-anchor="middle" x="701.38" y="-214.5" font-family="Helvetica,sans-Serif" font-size="10.00" fill="#ffffff">app.api</text>
</g>
<!-- app_api&#45;&gt;app -->
<g id="edge1" class="edge">
<title>app_api&#45;&gt;app</title><style>.edge>path:hover{stroke-width:8}</style>
<path fill="none" stroke="black" d="M721.62,-205.22C729.74,-199.59 739.16,-192.73 747.25,-186 759.82,-175.54 772.94,-163.09 783.86,-152.25"/>
<polygon fill="#c24747" stroke="black" points="786.1,-154.96 790.67,-145.4 781.14,-150.02 786.1,-154.96"/>
</g>
<!-- app_api_agent -->
<g id="node3" class="node">
<title>app_api_agent</title><style>.edge>path:hover{stroke-width:8}</style>
<polygon fill="blue" stroke="black" points="619.5,-190 545,-190 545,-154 619.5,-154 619.5,-190"/>
<text xml:space="preserve" text-anchor="middle" x="582.25" y="-168.5" font-family="Helvetica,sans-Serif" font-size="10.00" fill="white">app.api.agent</text>
</g>
<!-- app_api_agent&#45;&gt;app -->
<g id="edge2" class="edge">
<title>app_api_agent&#45;&gt;app</title><style>.edge>path:hover{stroke-width:8}</style>
<path fill="none" stroke="black" d="M619.97,-180.05C644.05,-183.44 675.56,-184.21 700.38,-172"/>
</g>
<!-- app_api_auth -->
<g id="node4" class="node">
<title>app_api_auth</title><style>.edge>path:hover{stroke-width:8}</style>
<polygon fill="blue" stroke="black" points="495.5,-438 426.25,-438 426.25,-402 495.5,-402 495.5,-438"/>
<text xml:space="preserve" text-anchor="middle" x="460.88" y="-416.5" font-family="Helvetica,sans-Serif" font-size="10.00" fill="white">app.api.auth</text>
</g>
<!-- app_api_auth&#45;&gt;app -->
<g id="edge3" class="edge">
<title>app_api_auth&#45;&gt;app</title><style>.edge>path:hover{stroke-width:8}</style>
<path fill="none" stroke="black" d="M495.91,-428.28C521.02,-432.51 555.22,-434.17 581.25,-420"/>
</g>
<!-- app_api_dashboard -->
<g id="node5" class="node">
<title>app_api_dashboard</title><style>.edge>path:hover{stroke-width:8}</style>
<polygon fill="blue" stroke="black" points="491.38,-254 430.38,-254 430.38,-210 491.38,-210 491.38,-254"/>
<text xml:space="preserve" text-anchor="middle" x="460.88" y="-240.5" font-family="Helvetica,sans-Serif" font-size="10.00" fill="white">app.</text>
<text xml:space="preserve" text-anchor="middle" x="460.88" y="-228.5" font-family="Helvetica,sans-Serif" font-size="10.00" fill="white">api.</text>
<text xml:space="preserve" text-anchor="middle" x="460.88" y="-216.5" font-family="Helvetica,sans-Serif" font-size="10.00" fill="white">dashboard</text>
</g>
<!-- app_api_dashboard&#45;&gt;app -->
<g id="edge4" class="edge">
<title>app_api_dashboard&#45;&gt;app</title><style>.edge>path:hover{stroke-width:8}</style>
<path fill="none" stroke="black" d="M491.73,-215.08C497.81,-210.91 503.9,-206.15 509,-201 541.56,-168.1 535.01,-124.03 581.25,-126"/>
</g>
<!-- app_api_data_management -->
<g id="node6" class="node">
<title>app_api_data_management</title><style>.edge>path:hover{stroke-width:8}</style>
<polygon fill="blue" stroke="black" points="509,-192 412.75,-192 412.75,-148 509,-148 509,-192"/>
<text xml:space="preserve" text-anchor="middle" x="460.88" y="-178.5" font-family="Helvetica,sans-Serif" font-size="10.00" fill="white">app.</text>
<text xml:space="preserve" text-anchor="middle" x="460.88" y="-166.5" font-family="Helvetica,sans-Serif" font-size="10.00" fill="white">api.</text>
<text xml:space="preserve" text-anchor="middle" x="460.88" y="-154.5" font-family="Helvetica,sans-Serif" font-size="10.00" fill="white">data_management</text>
</g>
<!-- app_api_data_management&#45;&gt;app -->
<g id="edge5" class="edge">
<title>app_api_data_management&#45;&gt;app</title><style>.edge>path:hover{stroke-width:8}</style>
<path fill="none" stroke="black" d="M499.31,-147.63C522.23,-136.14 552.56,-124.78 581.25,-126"/>
</g>
<!-- app_api_sheep -->
<g id="node7" class="node">
<title>app_api_sheep</title><style>.edge>path:hover{stroke-width:8}</style>
<polygon fill="blue" stroke="black" points="499.25,-346 422.5,-346 422.5,-310 499.25,-310 499.25,-346"/>
<text xml:space="preserve" text-anchor="middle" x="460.88" y="-324.5" font-family="Helvetica,sans-Serif" font-size="10.00" fill="white">app.api.sheep</text>
</g>
<!-- app_api_sheep&#45;&gt;app -->
<g id="edge6" class="edge">
<title>app_api_sheep&#45;&gt;app</title><style>.edge>path:hover{stroke-width:8}</style>
<path fill="none" stroke="black" d="M583.25,-420C676.98,-368.96 583.7,-269.96 655.5,-191 670.07,-174.98 680.94,-181.56 700.38,-172"/>
<path fill="none" stroke="black" d="M477.66,-346.04C504.82,-376.04 559.53,-431.83 581.25,-420"/>
</g>
<!-- app_models -->
<g id="node8" class="node">
<title>app_models</title><style>.edge>path:hover{stroke-width:8}</style>
<polygon fill="blue" stroke="black" points="266.25,-346 200,-346 200,-310 266.25,-310 266.25,-346"/>
<text xml:space="preserve" text-anchor="middle" x="233.12" y="-324.5" font-family="Helvetica,sans-Serif" font-size="10.00" fill="white">app.models</text>
</g>
<!-- app_models&#45;&gt;app_api_agent -->
<g id="edge7" class="edge">
<title>app_models&#45;&gt;app_api_agent</title><style>.edge>path:hover{stroke-width:8}</style>
<path fill="none" stroke="black" d="M340.5,-328C347.34,-326.06 453.51,-285.17 459.88,-282"/>
</g>
<!-- app_models&#45;&gt;app_api_auth -->
<g id="edge8" class="edge">
<title>app_models&#45;&gt;app_api_auth</title><style>.edge>path:hover{stroke-width:8}</style>
<path fill="none" stroke="black" d="M266.47,-341.18C305.58,-357.12 371.61,-384.03 415.47,-401.9"/>
<polygon fill="blue" stroke="black" points="414.13,-405.14 424.71,-405.67 416.77,-398.66 414.13,-405.14"/>
</g>
<!-- app_models&#45;&gt;app_api_dashboard -->
<g id="edge9" class="edge">
<title>app_models&#45;&gt;app_api_dashboard</title><style>.edge>path:hover{stroke-width:8}</style>
<path fill="none" stroke="black" d="M340.5,-328C358,-323.03 362.45,-320.25 376.75,-309 395.81,-294.01 395.03,-284.55 412.75,-268 415.46,-265.47 418.34,-262.94 421.28,-260.46"/>
<polygon fill="blue" stroke="black" points="423.48,-263.18 429.06,-254.17 419.08,-257.74 423.48,-263.18"/>
</g>
<!-- app_models&#45;&gt;app_api_data_management -->
<g id="edge10" class="edge">
<title>app_models&#45;&gt;app_api_data_management</title><style>.edge>path:hover{stroke-width:8}</style>
<path fill="none" stroke="black" d="M266.73,-332.52C287.64,-334.32 315.14,-334.63 338.5,-328"/>
<path fill="none" stroke="black" d="M340.5,-328C358,-323.03 364.96,-322.86 376.75,-309 409.53,-270.46 381.91,-241.11 412.75,-201 412.9,-200.81 413.05,-200.61 413.2,-200.42"/>
<polygon fill="blue" stroke="black" points="415.51,-203.07 419.89,-193.43 410.45,-198.23 415.51,-203.07"/>
</g>
<!-- app_models&#45;&gt;app_api_sheep -->
<g id="edge11" class="edge">
<title>app_models&#45;&gt;app_api_sheep</title><style>.edge>path:hover{stroke-width:8}</style>
<path fill="none" stroke="black" d="M340.5,-328C362.98,-321.62 388.81,-320.85 410.68,-322"/>
<polygon fill="blue" stroke="black" points="410.32,-325.49 420.54,-322.68 410.8,-318.5 410.32,-325.49"/>
</g>
<!-- app_utils -->
<g id="node9" class="node">
<title>app_utils</title><style>.edge>path:hover{stroke-width:8}</style>
<polygon fill="blue" stroke="black" points="366.5,-300 312.5,-300 312.5,-264 366.5,-264 366.5,-300"/>
<text xml:space="preserve" text-anchor="middle" x="339.5" y="-278.5" font-family="Helvetica,sans-Serif" font-size="10.00" fill="white">app.utils</text>
</g>
<!-- app_models&#45;&gt;app_utils -->
<g id="edge12" class="edge">
<title>app_models&#45;&gt;app_utils</title><style>.edge>path:hover{stroke-width:8}</style>
<path fill="none" stroke="black" d="M266.58,-313.7C277.64,-308.82 290.1,-303.33 301.49,-298.31"/>
<polygon fill="blue" stroke="black" points="302.89,-301.52 310.63,-294.28 300.07,-295.11 302.89,-301.52"/>
</g>
<!-- app_utils&#45;&gt;app_api_agent -->
<g id="edge13" class="edge">
<title>app_utils&#45;&gt;app_api_agent</title><style>.edge>path:hover{stroke-width:8}</style>
<path fill="none" stroke="black" d="M461.88,-282C482.09,-271.94 490.91,-276.51 509,-263 531.95,-245.86 551.67,-219.73 564.68,-199.86"/>
<polygon fill="blue" stroke="black" points="567.47,-202 569.88,-191.68 561.56,-198.25 567.47,-202"/>
<path fill="none" stroke="black" d="M366.7,-288.41C391.96,-293.17 430.56,-296.59 459.88,-282"/>
</g>
<!-- dotenv -->
<g id="node10" class="node">
<title>dotenv</title><style>.edge>path:hover{stroke-width:8}</style>
<polygon fill="#b68553" stroke="black" points="728.38,-144 725.38,-148 704.38,-148 701.38,-144 674.38,-144 674.38,-108 728.38,-108 728.38,-144"/>
<text xml:space="preserve" text-anchor="middle" x="701.38" y="-122.5" font-family="Helvetica,sans-Serif" font-size="10.00" fill="#000000">dotenv</text>
</g>
<!-- dotenv&#45;&gt;app -->
<g id="edge14" class="edge">
<title>dotenv&#45;&gt;app</title><style>.edge>path:hover{stroke-width:8}</style>
<path fill="none" stroke="black" d="M728.79,-126C741.64,-126 757.31,-126 771.4,-126"/>
<polygon fill="#b68553" stroke="black" points="771.25,-129.5 781.25,-126 771.25,-122.5 771.25,-129.5"/>
</g>
<!-- flask -->
<g id="node11" class="node">
<title>flask</title><style>.edge>path:hover{stroke-width:8}</style>
<polygon fill="#f9f906" stroke="black" points="158.25,-426 155.25,-430 134.25,-430 131.25,-426 104.25,-426 104.25,-390 158.25,-390 158.25,-426"/>
<text xml:space="preserve" text-anchor="middle" x="131.25" y="-404.5" font-family="Helvetica,sans-Serif" font-size="10.00" fill="#000000">flask</text>
</g>
<!-- flask&#45;&gt;app -->
<g id="edge15" class="edge">
<title>flask&#45;&gt;app</title><style>.edge>path:hover{stroke-width:8}</style>
<path fill="none" stroke="black" d="M461.88,-466C517.84,-455.99 531.32,-447.19 581.25,-420"/>
<path fill="none" stroke="black" d="M340.5,-442C394.62,-442.22 406.6,-475.53 459.88,-466"/>
</g>
<!-- flask&#45;&gt;app_api_agent -->
<g id="edge16" class="edge">
<title>flask&#45;&gt;app_api_agent</title><style>.edge>path:hover{stroke-width:8}</style>
<path fill="none" stroke="black" d="M340.5,-366C405.56,-328.59 448.36,-399.21 509,-355 558.49,-318.92 574.1,-243.61 579.01,-201.72"/>
<polygon fill="#f9f906" stroke="black" points="582.48,-202.17 580.02,-191.87 575.51,-201.46 582.48,-202.17"/>
</g>
<!-- flask&#45;&gt;app_api_auth -->
<g id="edge17" class="edge">
<title>flask&#45;&gt;app_api_auth</title><style>.edge>path:hover{stroke-width:8}</style>
<path fill="none" stroke="black" d="M234.12,-442C280.21,-447.29 292.11,-441.81 338.5,-442"/>
<path fill="none" stroke="black" d="M340.5,-442C365.35,-442.1 392.65,-437.44 414.85,-432.38"/>
<polygon fill="#f9f906" stroke="black" points="415.58,-435.81 424.49,-430.08 413.95,-429 415.58,-435.81"/>
</g>
<!-- flask&#45;&gt;app_api_dashboard -->
<g id="edge18" class="edge">
<title>flask&#45;&gt;app_api_dashboard</title><style>.edge>path:hover{stroke-width:8}</style>
<path fill="none" stroke="black" d="M158.65,-420.46C178.38,-428.9 206.28,-439.04 232.12,-442"/>
<path fill="none" stroke="black" d="M340.5,-366C357.25,-356.37 364.02,-356.53 376.75,-342 400.85,-314.49 389.59,-296.31 412.75,-268 415.38,-264.78 418.36,-261.68 421.5,-258.75"/>
<polygon fill="#f9f906" stroke="black" points="423.63,-261.53 428.94,-252.37 419.07,-256.22 423.63,-261.53"/>
<path fill="none" stroke="black" d="M234.12,-442C291.13,-448.54 288.75,-394.6 338.5,-366"/>
</g>
<!-- flask&#45;&gt;app_api_data_management -->
<g id="edge19" class="edge">
<title>flask&#45;&gt;app_api_data_management</title><style>.edge>path:hover{stroke-width:8}</style>
<path fill="none" stroke="black" d="M140.58,-389.5C151.6,-366.58 172.86,-327.33 200,-301 211.91,-289.45 218,-290.7 232.12,-282"/>
<path fill="none" stroke="black" d="M234.12,-282C288.91,-248.27 355.24,-216.34 401.78,-195.26"/>
<polygon fill="#f9f906" stroke="black" points="403.21,-198.46 410.9,-191.16 400.34,-192.07 403.21,-198.46"/>
</g>
<!-- flask&#45;&gt;app_api_sheep -->
<g id="edge20" class="edge">
<title>flask&#45;&gt;app_api_sheep</title><style>.edge>path:hover{stroke-width:8}</style>
<path fill="none" stroke="black" d="M340.5,-366C362.28,-353.48 388.7,-344.52 411.14,-338.46"/>
<polygon fill="#f9f906" stroke="black" points="411.86,-341.89 420.67,-336.01 410.12,-335.11 411.86,-341.89"/>
</g>
<!-- flask&#45;&gt;app_utils -->
<g id="edge21" class="edge">
<title>flask&#45;&gt;app_utils</title><style>.edge>path:hover{stroke-width:8}</style>
<path fill="none" stroke="black" d="M234.12,-282C253.91,-269.82 280.07,-269.84 301.25,-272.9"/>
<polygon fill="#f9f906" stroke="black" points="300.49,-276.32 310.94,-274.59 301.69,-269.42 300.49,-276.32"/>
</g>
<!-- flask_migrate -->
<g id="node14" class="node">
<title>flask_migrate</title><style>.edge>path:hover{stroke-width:8}</style>
<polygon fill="#3db87a" stroke="black" points="376.75,-506 373.75,-510 352.75,-510 349.75,-506 302.25,-506 302.25,-470 376.75,-470 376.75,-506"/>
<text xml:space="preserve" text-anchor="middle" x="339.5" y="-484.5" font-family="Helvetica,sans-Serif" font-size="10.00" fill="#000000">flask_migrate</text>
</g>
<!-- flask&#45;&gt;flask_migrate -->
<g id="edge22" class="edge">
<title>flask&#45;&gt;flask_migrate</title><style>.edge>path:hover{stroke-width:8}</style>
<path fill="none" stroke="black" d="M234.12,-442C257.03,-444.63 280.69,-454.38 299.68,-464.23"/>
<polygon fill="#f9f906" stroke="black" points="297.93,-467.26 308.39,-468.95 301.27,-461.11 297.93,-467.26"/>
</g>
<!-- flask_cors -->
<g id="node12" class="node">
<title>flask_cors</title><style>.edge>path:hover{stroke-width:8}</style>
<polygon fill="#85b653" stroke="black" points="731.88,-90 728.88,-94 707.88,-94 704.88,-90 670.88,-90 670.88,-54 731.88,-54 731.88,-90"/>
<text xml:space="preserve" text-anchor="middle" x="701.38" y="-68.5" font-family="Helvetica,sans-Serif" font-size="10.00" fill="#000000">flask_cors</text>
</g>
<!-- flask_cors&#45;&gt;app -->
<g id="edge23" class="edge">
<title>flask_cors&#45;&gt;app</title><style>.edge>path:hover{stroke-width:8}</style>
<path fill="none" stroke="black" d="M732.15,-87.04C744.72,-93.4 759.48,-100.86 772.71,-107.54"/>
<polygon fill="#85b653" stroke="black" points="771.06,-110.63 781.56,-112.01 774.22,-104.38 771.06,-110.63"/>
</g>
<!-- flask_login -->
<g id="node13" class="node">
<title>flask_login</title><style>.edge>path:hover{stroke-width:8}</style>
<polygon fill="#10f910" stroke="black" points="62.5,-254 59.5,-258 38.5,-258 35.5,-254 0,-254 0,-218 62.5,-218 62.5,-254"/>
<text xml:space="preserve" text-anchor="middle" x="31.25" y="-232.5" font-family="Helvetica,sans-Serif" font-size="10.00" fill="#000000">flask_login</text>
</g>
<!-- flask_login&#45;&gt;app -->
<g id="edge24" class="edge">
<title>flask_login&#45;&gt;app</title><style>.edge>path:hover{stroke-width:8}</style>
<path fill="none" stroke="black" d="M461.88,-82C513.36,-105.37 524.76,-123.59 581.25,-126"/>
<path fill="none" stroke="black" d="M132.25,-52C265.71,7.73 326.73,-21.57 459.88,-82"/>
<path fill="none" stroke="black" d="M702.38,-172C721.81,-162.44 727.35,-161.55 747.25,-153 755.43,-149.49 764.19,-145.69 772.49,-142.08"/>
<polygon fill="#10f910" stroke="black" points="773.87,-145.3 781.64,-138.09 771.08,-138.88 773.87,-145.3"/>
<path fill="none" stroke="black" d="M35.6,-217.65C42.37,-184.89 60.42,-115.61 98.5,-71 109.18,-58.49 115.34,-58.95 130.25,-52"/>
<path fill="none" stroke="black" d="M583.25,-126C639.13,-128.38 650.19,-196.68 700.38,-172"/>
</g>
<!-- flask_login&#45;&gt;app_api_agent -->
<g id="edge25" class="edge">
<title>flask_login&#45;&gt;app_api_agent</title><style>.edge>path:hover{stroke-width:8}</style>
<path fill="none" stroke="black" d="M461.88,-82C483.46,-91.8 489.63,-93.32 509,-107 526.73,-119.52 528.86,-125.48 545,-140 547.34,-142.11 549.77,-144.28 552.22,-146.46"/>
<polygon fill="#10f910" stroke="black" points="549.55,-148.77 559.35,-152.79 554.19,-143.53 549.55,-148.77"/>
</g>
<!-- flask_login&#45;&gt;app_api_auth -->
<g id="edge26" class="edge">
<title>flask_login&#45;&gt;app_api_auth</title><style>.edge>path:hover{stroke-width:8}</style>
<path fill="none" stroke="black" d="M41.86,-254.41C48.29,-267.23 56.63,-284.86 62.5,-301 83.59,-358.95 57.4,-389.03 98.5,-435 184.27,-530.92 265.46,-579.59 376.75,-515 404.64,-498.81 390.85,-475.67 412.75,-452 414.89,-449.69 417.23,-447.45 419.68,-445.32"/>
<polygon fill="#10f910" stroke="black" points="421.5,-448.34 427.16,-439.38 417.15,-442.85 421.5,-448.34"/>
</g>
<!-- flask_login&#45;&gt;app_api_dashboard -->
<g id="edge27" class="edge">
<title>flask_login&#45;&gt;app_api_dashboard</title><style>.edge>path:hover{stroke-width:8}</style>
<path fill="none" stroke="black" d="M234.12,-160C298.37,-157.8 316.26,-162.25 376.75,-184 385.8,-187.25 403.57,-197.32 420.37,-207.4"/>
<polygon fill="#10f910" stroke="black" points="418.41,-210.31 428.78,-212.5 422.04,-204.32 418.41,-210.31"/>
<path fill="none" stroke="black" d="M42.7,-217.7C53.94,-200.04 73.59,-174.37 98.5,-163 152.54,-138.34 172.74,-158.34 232.12,-160"/>
</g>
<!-- flask_login&#45;&gt;app_api_data_management -->
<g id="edge28" class="edge">
<title>flask_login&#45;&gt;app_api_data_management</title><style>.edge>path:hover{stroke-width:8}</style>
<path fill="none" stroke="black" d="M132.25,-52C147.26,-45.28 150.74,-61.27 164,-71 194.5,-93.37 195.18,-113.89 232.12,-122"/>
<path fill="none" stroke="black" d="M234.12,-122C290.77,-134.44 355.52,-148.15 401.11,-157.73"/>
<polygon fill="#10f910" stroke="black" points="400.28,-161.13 410.79,-159.76 401.72,-154.28 400.28,-161.13"/>
</g>
<!-- flask_login&#45;&gt;app_api_sheep -->
<g id="edge29" class="edge">
<title>flask_login&#45;&gt;app_api_sheep</title><style>.edge>path:hover{stroke-width:8}</style>
<path fill="none" stroke="black" d="M62.75,-230.18C125.32,-219.79 271.17,-203.65 376.75,-255 398.56,-265.61 394.57,-279.95 412.75,-296 415.49,-298.42 418.43,-300.81 421.44,-303.13"/>
<polygon fill="#10f910" stroke="black" points="419.24,-305.86 429.38,-308.93 423.37,-300.2 419.24,-305.86"/>
</g>
<!-- flask_login&#45;&gt;app_models -->
<g id="edge30" class="edge">
<title>flask_login&#45;&gt;app_models</title><style>.edge>path:hover{stroke-width:8}</style>
<path fill="none" stroke="black" d="M42.96,-254.35C58.5,-278.57 89.9,-319.16 130.25,-328"/>
<path fill="none" stroke="black" d="M132.25,-328C150.37,-331.97 170.78,-332.62 188.4,-332.03"/>
<polygon fill="#10f910" stroke="black" points="188.48,-335.53 198.3,-331.55 188.14,-328.54 188.48,-335.53"/>
</g>
<!-- flask_migrate&#45;&gt;app -->
<g id="edge31" class="edge">
<title>flask_migrate&#45;&gt;app</title><style>.edge>path:hover{stroke-width:8}</style>
<path fill="none" stroke="black" d="M377.05,-481.16C400.67,-476.77 432.08,-470.97 459.88,-466"/>
</g>
<!-- flask_sqlalchemy -->
<g id="node15" class="node">
<title>flask_sqlalchemy</title><style>.edge>path:hover{stroke-width:8}</style>
<polygon fill="#53b6b6" stroke="black" points="747.25,-36 744.25,-40 723.25,-40 720.25,-36 655.5,-36 655.5,0 747.25,0 747.25,-36"/>
<text xml:space="preserve" text-anchor="middle" x="701.38" y="-14.5" font-family="Helvetica,sans-Serif" font-size="10.00" fill="#000000">flask_sqlalchemy</text>
</g>
<!-- flask_sqlalchemy&#45;&gt;app -->
<g id="edge32" class="edge">
<title>flask_sqlalchemy&#45;&gt;app</title><style>.edge>path:hover{stroke-width:8}</style>
<path fill="none" stroke="black" d="M736.2,-36.43C740.08,-39.09 743.86,-41.97 747.25,-45 764.69,-60.59 780.63,-81.65 791.99,-98.39"/>
<polygon fill="#53b6b6" stroke="black" points="788.85,-100 797.28,-106.41 794.69,-96.14 788.85,-100"/>
</g>
<!-- markdown -->
<g id="node16" class="node">
<title>markdown</title><style>.edge>path:hover{stroke-width:8}</style>
<polygon fill="#5385b6" stroke="black" points="263.62,-94 260.62,-98 239.62,-98 236.62,-94 202.62,-94 202.62,-58 263.62,-58 263.62,-94"/>
<text xml:space="preserve" text-anchor="middle" x="233.12" y="-72.5" font-family="Helvetica,sans-Serif" font-size="10.00" fill="#ffffff">markdown</text>
</g>
<!-- markdown&#45;&gt;app_api_agent -->
<g id="edge33" class="edge">
<title>markdown&#45;&gt;app_api_agent</title><style>.edge>path:hover{stroke-width:8}</style>
<path fill="none" stroke="black" d="M263.98,-80.74C315.06,-89.32 422.14,-109.31 509,-139 517.35,-141.85 526.04,-145.34 534.38,-148.97"/>
<polygon fill="#5385b6" stroke="black" points="532.76,-152.08 543.32,-152.98 535.63,-145.7 532.76,-152.08"/>
</g>
<!-- pandas -->
<g id="node17" class="node">
<title>pandas</title><style>.edge>path:hover{stroke-width:8}</style>
<polygon fill="#4040c0" stroke="black" points="158.25,-116 155.25,-120 134.25,-120 131.25,-116 104.25,-116 104.25,-80 158.25,-80 158.25,-116"/>
<text xml:space="preserve" text-anchor="middle" x="131.25" y="-94.5" font-family="Helvetica,sans-Serif" font-size="10.00" fill="#ffffff">pandas</text>
</g>
<!-- pandas&#45;&gt;app_api_data_management -->
<g id="edge34" class="edge">
<title>pandas&#45;&gt;app_api_data_management</title><style>.edge>path:hover{stroke-width:8}</style>
<path fill="none" stroke="black" d="M158.47,-104.6C178.58,-109.59 207.04,-116.49 232.12,-122"/>
</g>
<!-- requests -->
<g id="node18" class="node">
<title>requests</title><style>.edge>path:hover{stroke-width:8}</style>
<polygon fill="#7f40c0" stroke="black" points="158.25,-300 155.25,-304 134.25,-304 131.25,-300 104.25,-300 104.25,-264 158.25,-264 158.25,-300"/>
<text xml:space="preserve" text-anchor="middle" x="131.25" y="-278.5" font-family="Helvetica,sans-Serif" font-size="10.00" fill="#ffffff">requests</text>
</g>
<!-- requests&#45;&gt;app_utils -->
<g id="edge35" class="edge">
<title>requests&#45;&gt;app_utils</title><style>.edge>path:hover{stroke-width:8}</style>
<path fill="none" stroke="black" d="M158.44,-275.29C170.93,-272.42 186.14,-269.42 200,-268 229.29,-265.01 236.94,-265.19 266.25,-268 277.67,-269.1 289.97,-271.15 301.13,-273.35"/>
<polygon fill="#7f40c0" stroke="black" points="300.27,-276.74 310.77,-275.35 301.69,-269.89 300.27,-276.74"/>
</g>
<!-- sqlalchemy -->
<g id="node19" class="node">
<title>sqlalchemy</title><style>.edge>path:hover{stroke-width:8}</style>
<polygon fill="#cc33cc" stroke="black" points="164,-208 161,-212 140,-212 137,-208 98.5,-208 98.5,-172 164,-172 164,-208"/>
<text xml:space="preserve" text-anchor="middle" x="131.25" y="-186.5" font-family="Helvetica,sans-Serif" font-size="10.00" fill="#ffffff">sqlalchemy</text>
</g>
<!-- sqlalchemy&#45;&gt;app_api_dashboard -->
<g id="edge36" class="edge">
<title>sqlalchemy&#45;&gt;app_api_dashboard</title><style>.edge>path:hover{stroke-width:8}</style>
<path fill="none" stroke="black" d="M164.37,-175.77C183.61,-168.41 208.78,-160.8 232.12,-160"/>
</g>
<!-- werkzeug -->
<g id="node20" class="node">
<title>werkzeug</title><style>.edge>path:hover{stroke-width:8}</style>
<polygon fill="#b65385" stroke="black" points="60.25,-346 57.25,-350 36.25,-350 33.25,-346 2.25,-346 2.25,-310 60.25,-310 60.25,-346"/>
<text xml:space="preserve" text-anchor="middle" x="31.25" y="-324.5" font-family="Helvetica,sans-Serif" font-size="10.00" fill="#ffffff">werkzeug</text>
</g>
<!-- werkzeug&#45;&gt;app_models -->
<g id="edge37" class="edge">
<title>werkzeug&#45;&gt;app_models</title><style>.edge>path:hover{stroke-width:8}</style>
<path fill="none" stroke="black" d="M60.47,-324.83C80.24,-323.38 107.15,-322.94 130.25,-328"/>
</g>
</g>
</svg>
